<svg width="36" height="53" viewBox="0 0 36 53" fill="none" xmlns="http://www.w3.org/2000/svg">
<path d="M26.3069 53C25.22 53 24.3405 52.1205 24.3405 51.0336C24.3405 50.7261 24.4192 50.4115 24.5836 50.1112L25.2773 48.8169H10.4756L11.162 50.104C11.3265 50.4043 11.4052 50.719 11.4052 51.0264C11.4052 52.1133 10.5256 52.9928 9.43874 52.9928C8.35186 52.9928 7.47234 52.1133 7.47234 51.0264C7.47234 50.719 7.55099 50.4043 7.71546 50.104L8.40906 48.8098H4.41904C1.9807 48.8098 0 46.8291 0 44.3907V14.0723C0 11.634 1.9807 9.65326 4.41904 9.65326H11.0476V2.5313C11.0476 1.13694 12.1846 0 13.5789 0H22.1739C23.5683 0 24.7052 1.13694 24.7052 2.5313V9.65326H31.3338C33.7721 9.65326 35.7528 11.634 35.7528 14.0723V44.3907C35.7528 46.8291 33.7721 48.8098 31.3338 48.8098H27.3438L28.0374 50.104C28.2018 50.4043 28.2805 50.7118 28.2805 51.0264C28.2805 52.1133 27.401 52.9928 26.3141 52.9928L26.3069 53ZM4.41904 11.3122C2.89597 11.3122 1.65178 12.5564 1.65178 14.0795V44.3979C1.65178 45.9209 2.89597 47.1651 4.41904 47.1651H31.3266C32.8497 47.1651 34.0939 45.9209 34.0939 44.3979V14.0795C34.0939 12.5564 32.8497 11.3122 31.3266 11.3122H4.41904ZM12.7066 1.65893V9.66042H23.0534V1.65893H12.7066Z" fill="#1D50A2"/>
<path d="M17.8408 43.3462C17.376 43.3462 16.9971 42.9673 16.9971 42.5096V15.981C16.9971 15.5162 17.376 15.1444 17.8408 15.1444C18.3056 15.1444 18.6774 15.5234 18.6774 15.981V42.5096C18.6774 42.9744 18.2985 43.3462 17.8408 43.3462Z" fill="#1D50A2"/>
<path d="M26.3638 43.3462C25.899 43.3462 25.52 42.9673 25.52 42.5096V15.981C25.52 15.5162 25.899 15.1444 26.3638 15.1444C26.8286 15.1444 27.2004 15.5234 27.2004 15.981V42.5096C27.2004 42.9744 26.8214 43.3462 26.3638 43.3462Z" fill="#1D50A2"/>
<path d="M9.30927 43.3462C8.84448 43.3462 8.47266 42.9673 8.47266 42.5096V15.981C8.47266 15.5162 8.85163 15.1444 9.30927 15.1444C9.76691 15.1444 10.153 15.5234 10.153 15.981V42.5096C10.153 42.9744 9.77406 43.3462 9.30927 43.3462Z" fill="#1D50A2"/>
</svg>
