<svg width="92" height="28" viewBox="0 0 92 28" fill="none" xmlns="http://www.w3.org/2000/svg">
<path d="M17.3925 24.795C17.9231 24.885 18.5087 24.815 19.1309 24.545C20.421 23.985 22.0863 22.655 24.4744 22.655C26.8442 22.655 28.3631 23.605 29.827 24.555C31.2544 25.485 33.002 26.285 35.381 26.325C37.7599 26.365 39.4892 25.485 40.9257 24.555C42.1793 23.735 43.8994 22.655 46.2875 22.655C48.6665 22.655 50.1579 23.605 51.6219 24.555C53.0492 25.485 54.7968 26.355 57.1758 26.355C59.5547 26.355 61.3206 25.485 62.7572 24.555C64.2211 23.605 65.7217 22.655 68.064 22.655C70.1776 22.655 72.9317 24.935 74.5878 24.495" stroke="#1D50A2" stroke-width="2.23" stroke-miterlimit="10" stroke-linecap="round"/>
<path d="M90.0785 1.12499H89.072C86.6931 1.09499 85.2016 2.13499 84.1403 2.82499C82.6763 3.77499 80.6084 4.83499 78.2203 4.83499C75.8505 4.83499 73.7278 3.78499 72.2638 2.82499C70.8364 1.89499 69.7019 1.14499 67.2863 1.14499C64.944 1.14499 63.8277 1.89499 62.4003 2.82499C60.9364 3.77499 58.7862 4.83499 56.4072 4.83499C54.0283 4.83499 51.8964 3.79499 50.4324 2.84499C49.005 1.91499 47.8888 1.15499 45.519 1.15499C43.14 1.15499 41.795 2.06499 40.5872 2.84499C39.1232 3.79499 37.0005 4.85499 34.6215 4.85499C32.2426 4.85499 30.1199 3.80499 28.6559 2.84499C27.2285 1.91499 26.0939 1.15499 23.7241 1.15499C21.3543 1.15499 20.2289 1.90499 18.8016 2.83499C17.3376 3.78499 15.1874 4.85499 12.8267 4.85499C10.4295 4.85499 8.34333 3.78499 6.87937 2.83499C5.80884 2.14499 4.31742 1.11499 1.94763 1.11499C1.08754 1.11499 1.43523 1.11499 1.11499 1.11499" stroke="#1D50A2" stroke-width="2.23" stroke-miterlimit="10" stroke-linecap="round"/>
<path d="M6.87964 13.2751C6.87964 13.2751 7.09923 13.5751 7.26393 13.6951C8.77365 14.8551 10.8598 15.5851 12.8178 15.5851C15.1785 15.5851 16.8804 14.6851 18.3718 13.7951C19.8906 12.8851 21.3272 11.8851 23.7153 11.8651C26.0851 11.8551 27.5399 12.7951 29.0679 13.7851C30.5593 14.7551 31.7305 15.5651 34.6218 15.5651C37.5132 15.5651 38.6752 14.7551 40.1666 13.7851C41.4842 12.9251 43.1403 11.8751 45.5284 11.8751C47.9165 11.8751 49.3347 12.7951 50.8627 13.7851C52.3541 14.7551 54.0377 15.5751 56.4166 15.5751C58.7956 15.5751 60.5066 14.7551 61.998 13.7851C63.526 12.7951 64.9625 11.8751 67.3049 11.8751C69.6472 11.8751 71.1753 12.8751 72.7033 13.7851C74.1947 14.6751 75.8783 15.5751 78.2389 15.5751C80.6087 15.5751 83.2804 14.3151 84.2869 13.4351" stroke="#1D50A2" stroke-width="2.23" stroke-miterlimit="10" stroke-linecap="round"/>
</svg>
