<svg width="100" height="28" viewBox="0 0 100 28" fill="none" xmlns="http://www.w3.org/2000/svg">
<path d="M18.905 24.795C19.485 24.885 20.125 24.815 20.805 24.545C22.215 23.985 24.035 22.655 26.645 22.655C29.235 22.655 30.895 23.605 32.495 24.555C34.055 25.485 35.965 26.285 38.565 26.325C41.165 26.365 43.055 25.485 44.625 24.555C45.995 23.735 47.875 22.655 50.485 22.655C53.085 22.655 54.715 23.605 56.315 24.555C57.875 25.485 59.785 26.355 62.385 26.355C64.985 26.355 66.915 25.485 68.485 24.555C70.085 23.605 71.725 22.655 74.285 22.655C76.595 22.655 79.605 24.935 81.415 24.495" stroke="#1D50A2" stroke-width="2.23" stroke-miterlimit="10" stroke-linecap="round"/>
<path d="M98.345 1.12499H97.245C94.645 1.09499 93.015 2.13499 91.855 2.82499C90.255 3.77499 87.995 4.83499 85.385 4.83499C82.795 4.83499 80.475 3.78499 78.875 2.82499C77.315 1.89499 76.075 1.14499 73.435 1.14499C70.875 1.14499 69.655 1.89499 68.095 2.82499C66.495 3.77499 64.145 4.83499 61.545 4.83499C58.945 4.83499 56.615 3.79499 55.015 2.84499C53.455 1.91499 52.235 1.15499 49.645 1.15499C47.045 1.15499 45.575 2.06499 44.255 2.84499C42.655 3.79499 40.335 4.85499 37.735 4.85499C35.135 4.85499 32.815 3.80499 31.215 2.84499C29.655 1.91499 28.415 1.15499 25.825 1.15499C23.235 1.15499 22.005 1.90499 20.445 2.83499C18.845 3.78499 16.495 4.85499 13.915 4.85499C11.295 4.85499 9.01499 3.78499 7.41499 2.83499C6.24499 2.14499 4.61499 1.11499 2.02499 1.11499C1.08499 1.11499 1.46499 1.11499 1.11499 1.11499" stroke="#1D50A2" stroke-width="2.23" stroke-miterlimit="10" stroke-linecap="round"/>
<path d="M7.41498 13.275C7.41498 13.275 7.65498 13.575 7.83498 13.695C9.48498 14.855 11.765 15.585 13.905 15.585C16.485 15.585 18.345 14.685 19.975 13.795C21.635 12.885 23.205 11.885 25.815 11.865C28.405 11.855 29.995 12.795 31.665 13.785C33.295 14.755 34.575 15.565 37.735 15.565C40.895 15.565 42.165 14.755 43.795 13.785C45.235 12.925 47.045 11.875 49.655 11.875C52.265 11.875 53.815 12.795 55.485 13.785C57.115 14.755 58.955 15.575 61.555 15.575C64.155 15.575 66.025 14.755 67.655 13.785C69.325 12.795 70.895 11.875 73.455 11.875C76.015 11.875 77.685 12.875 79.355 13.785C80.985 14.675 82.825 15.575 85.405 15.575C87.995 15.575 90.915 14.315 92.015 13.435" stroke="#1D50A2" stroke-width="2.23" stroke-miterlimit="10" stroke-linecap="round"/>
</svg>

