<svg width="58" height="38" viewBox="0 0 58 38" fill="none" xmlns="http://www.w3.org/2000/svg">
<path d="M56.3317 1.86894C55.3517 1.26894 54.2617 0.818938 53.1517 0.518938C50.8117 -0.111062 48.3517 -0.111062 45.9717 0.218938C36.8517 1.48894 27.7917 7.74894 23.8817 16.1589C23.5617 16.8589 23.2817 17.5689 23.0217 18.2889C20.4817 17.1189 17.4817 17.1889 14.8517 18.1289C11.6417 19.2789 9.07172 21.5589 6.58172 23.7989C3.54172 26.5889 0.931719 30.2289 0.201719 34.3789C0.0817189 35.0689 -0.118281 35.9389 0.0917189 36.6389C0.371719 37.5989 1.44172 38.1389 2.39172 37.8489C3.41172 37.5389 4.00172 36.1889 4.65172 35.4189C7.85172 31.6389 12.2217 28.9789 16.9517 27.5889C18.9417 27.0089 21.0017 26.5889 23.0817 26.7789C24.1417 26.8689 25.1617 27.1189 26.2017 26.7589C27.6417 26.2589 28.8517 25.1289 29.5117 23.7689C30.5217 21.6689 31.2017 19.5889 32.7417 17.7689C35.9917 13.9189 40.1517 10.8589 44.6817 8.67894C46.9617 7.57894 49.3717 6.72894 51.8417 6.15894C53.0417 5.87894 54.2617 5.66894 55.4917 5.54894C56.5017 5.44894 57.6617 5.44894 57.9617 4.23894C58.2417 3.07894 57.2017 2.39894 56.3417 1.87894L56.3317 1.86894ZM51.0617 4.38894C48.8017 4.92894 46.6117 5.71894 44.4917 6.67894C40.3317 8.56894 36.4717 11.1989 33.2417 14.4289C31.6517 16.0189 30.1617 17.7489 29.1617 19.7789C28.4917 21.1589 28.1517 23.0289 26.9717 24.0889C26.2117 24.7789 25.4717 25.1189 24.5617 25.0589C23.3017 24.9689 22.1117 24.7789 20.8317 24.8889C16.4617 25.2789 12.0517 27.0489 8.44172 29.4989C6.86172 30.5689 5.39172 31.8089 4.09172 33.1989L3.21172 31.1789C4.34172 28.8889 6.07172 26.7989 7.90172 25.1189C11.8517 21.5489 17.6017 17.0089 23.0617 20.4389C23.5917 20.7689 24.2717 20.4389 24.4517 19.8789C26.9817 11.5689 34.3717 5.46894 42.4817 2.91894C45.3517 2.01894 48.6717 1.50894 51.7217 2.09894L53.0817 3.96894C52.4017 4.08894 51.7217 4.21894 51.0417 4.37894L51.0617 4.38894Z" fill="#1D50A2"/>
</svg>

