<svg width="863" height="52" viewBox="0 0 863 52" fill="none" xmlns="http://www.w3.org/2000/svg">
  <mask id="mask0_1410_365" style="mask-type:alpha" maskUnits="userSpaceOnUse" x="4" y="0" width="855" height="44">
    <rect x="4" width="855" height="44" fill="#D9D9D9" />
  </mask>
  <g mask="url(#mask0_1410_365)">
    <path fill-rule="evenodd" clip-rule="evenodd"
      d="M868.044 46.8338C859.999 46.8338 852.737 42.0131 849.613 34.5991L840.191 12.2347C837.067 4.82064 829.805 0 821.76 0H48.7401C40.6949 0 33.4328 4.82064 30.3092 12.2347L20.8866 34.5991C17.763 42.0131 10.5009 46.8338 2.45568 46.8338H-250C-250.552 46.8338 -251 47.2815 -251 47.8338V1080C-251 1080.55 -250.552 1081 -250 1081H1115C1115.55 1081 1116 1080.55 1116 1080V47.8338C1116 47.2815 1115.55 46.8338 1115 46.8338H868.044Z"
      fill="#D9D9D9" />
    <path fill-rule="evenodd" clip-rule="evenodd"
      d="M868.044 46.8338C859.999 46.8338 852.737 42.0131 849.613 34.5991L840.191 12.2347C837.067 4.82064 829.805 0 821.76 0H48.7401C40.6949 0 33.4328 4.82064 30.3092 12.2347L20.8866 34.5991C17.763 42.0131 10.5009 46.8338 2.45568 46.8338H-250C-250.552 46.8338 -251 47.2815 -251 47.8338V1080C-251 1080.55 -250.552 1081 -250 1081H1115C1115.55 1081 1116 1080.55 1116 1080V47.8338C1116 47.2815 1115.55 46.8338 1115 46.8338H868.044Z"
      fill="white" />
  </g>
</svg>

